<mxfile host="app.diagrams.net" modified="2021-10-29T11:41:51.986Z" agent="5.0 (Windows NT 10.0; Win64; x64) AppleWebKit/537.36 (KHTML, like Gecko) Chrome/95.0.4638.54 Safari/537.36" etag="BI-uiC2A8uQxOPSe6gaG" version="15.6.2" type="github">
  <diagram id="UP36SQHr7LWjTd3bFPaZ" name="Page-1">
    <mxGraphModel dx="1038" dy="547" grid="1" gridSize="10" guides="1" tooltips="1" connect="1" arrows="1" fold="1" page="0" pageScale="1" pageWidth="850" pageHeight="1100" math="0" shadow="0">
      <root>
        <mxCell id="0" />
        <mxCell id="1" parent="0" />
        <mxCell id="up2gKn9A0Hi2B86YJyC5-7" value="Region" style="points=[[0,0],[0.25,0],[0.5,0],[0.75,0],[1,0],[1,0.25],[1,0.5],[1,0.75],[1,1],[0.75,1],[0.5,1],[0.25,1],[0,1],[0,0.75],[0,0.5],[0,0.25]];outlineConnect=0;gradientColor=none;html=1;whiteSpace=wrap;fontSize=12;fontStyle=0;shape=mxgraph.aws4.group;grIcon=mxgraph.aws4.group_region;strokeColor=#147EBA;fillColor=none;verticalAlign=top;align=left;spacingLeft=30;fontColor=#147EBA;dashed=1;" parent="1" vertex="1">
          <mxGeometry x="350" y="110" width="450" height="340" as="geometry" />
        </mxCell>
        <mxCell id="up2gKn9A0Hi2B86YJyC5-8" value="VPC" style="points=[[0,0],[0.25,0],[0.5,0],[0.75,0],[1,0],[1,0.25],[1,0.5],[1,0.75],[1,1],[0.75,1],[0.5,1],[0.25,1],[0,1],[0,0.75],[0,0.5],[0,0.25]];outlineConnect=0;gradientColor=none;html=1;whiteSpace=wrap;fontSize=12;fontStyle=0;shape=mxgraph.aws4.group;grIcon=mxgraph.aws4.group_vpc;strokeColor=#248814;fillColor=none;verticalAlign=top;align=left;spacingLeft=30;fontColor=#AAB7B8;dashed=0;" parent="1" vertex="1">
          <mxGeometry x="380" y="140" width="390" height="280" as="geometry" />
        </mxCell>
        <mxCell id="up2gKn9A0Hi2B86YJyC5-14" value="Private subnet" style="points=[[0,0],[0.25,0],[0.5,0],[0.75,0],[1,0],[1,0.25],[1,0.5],[1,0.75],[1,1],[0.75,1],[0.5,1],[0.25,1],[0,1],[0,0.75],[0,0.5],[0,0.25]];outlineConnect=0;gradientColor=none;html=1;whiteSpace=wrap;fontSize=12;fontStyle=0;shape=mxgraph.aws4.group;grIcon=mxgraph.aws4.group_security_group;grStroke=0;strokeColor=#147EBA;fillColor=#E6F2F8;verticalAlign=top;align=left;spacingLeft=30;fontColor=#147EBA;dashed=0;" parent="1" vertex="1">
          <mxGeometry x="620" y="170" width="130" height="230" as="geometry" />
        </mxCell>
        <mxCell id="up2gKn9A0Hi2B86YJyC5-9" value="Public subnet" style="points=[[0,0],[0.25,0],[0.5,0],[0.75,0],[1,0],[1,0.25],[1,0.5],[1,0.75],[1,1],[0.75,1],[0.5,1],[0.25,1],[0,1],[0,0.75],[0,0.5],[0,0.25]];outlineConnect=0;gradientColor=none;html=1;whiteSpace=wrap;fontSize=12;fontStyle=0;shape=mxgraph.aws4.group;grIcon=mxgraph.aws4.group_security_group;grStroke=0;strokeColor=#248814;fillColor=#E9F3E6;verticalAlign=top;align=left;spacingLeft=30;fontColor=#248814;dashed=0;" parent="1" vertex="1">
          <mxGeometry x="450" y="170" width="150" height="230" as="geometry" />
        </mxCell>
        <mxCell id="up2gKn9A0Hi2B86YJyC5-1" value="Corporate data center" style="points=[[0,0],[0.25,0],[0.5,0],[0.75,0],[1,0],[1,0.25],[1,0.5],[1,0.75],[1,1],[0.75,1],[0.5,1],[0.25,1],[0,1],[0,0.75],[0,0.5],[0,0.25]];outlineConnect=0;gradientColor=none;html=1;whiteSpace=wrap;fontSize=12;fontStyle=0;shape=mxgraph.aws4.group;grIcon=mxgraph.aws4.group_corporate_data_center;strokeColor=#5A6C86;fillColor=default;verticalAlign=top;align=left;spacingLeft=30;fontColor=#5A6C86;dashed=0;" parent="1" vertex="1">
          <mxGeometry x="30" y="110" width="190" height="340" as="geometry" />
        </mxCell>
        <mxCell id="up2gKn9A0Hi2B86YJyC5-6" style="edgeStyle=orthogonalEdgeStyle;rounded=0;orthogonalLoop=1;jettySize=auto;html=1;fillColor=#ffe6cc;strokeColor=#d79b00;" parent="1" source="up2gKn9A0Hi2B86YJyC5-2" target="up2gKn9A0Hi2B86YJyC5-4" edge="1">
          <mxGeometry relative="1" as="geometry" />
        </mxCell>
        <mxCell id="up2gKn9A0Hi2B86YJyC5-2" value="" style="sketch=0;shadow=0;dashed=0;html=1;strokeColor=default;fillColor=#FFFFFF;labelPosition=center;verticalLabelPosition=bottom;verticalAlign=top;outlineConnect=0;align=center;shape=mxgraph.office.databases.database;" parent="1" vertex="1">
          <mxGeometry x="140" y="226" width="47.5" height="64" as="geometry" />
        </mxCell>
        <mxCell id="up2gKn9A0Hi2B86YJyC5-3" value="OracleDB&lt;br&gt;(source)" style="text;html=1;strokeColor=none;fillColor=none;align=center;verticalAlign=middle;whiteSpace=wrap;rounded=0;" parent="1" vertex="1">
          <mxGeometry x="133.75" y="300.5" width="60" height="30" as="geometry" />
        </mxCell>
        <mxCell id="up2gKn9A0Hi2B86YJyC5-4" value="" style="sketch=0;pointerEvents=1;shadow=0;dashed=0;html=1;strokeColor=default;fillColor=#FFFFFF;labelPosition=center;verticalLabelPosition=bottom;verticalAlign=top;outlineConnect=0;align=center;shape=mxgraph.office.servers.server_generic;" parent="1" vertex="1">
          <mxGeometry x="90" y="335" width="38.5" height="62" as="geometry" />
        </mxCell>
        <mxCell id="up2gKn9A0Hi2B86YJyC5-5" value="Server&lt;br&gt;AWS SCT Installed" style="text;html=1;strokeColor=none;fillColor=none;align=center;verticalAlign=middle;whiteSpace=wrap;rounded=0;" parent="1" vertex="1">
          <mxGeometry x="44.25" y="405" width="130" height="30" as="geometry" />
        </mxCell>
        <mxCell id="up2gKn9A0Hi2B86YJyC5-22" style="edgeStyle=orthogonalEdgeStyle;rounded=0;orthogonalLoop=1;jettySize=auto;html=1;fontSize=10;fillColor=#dae8fc;strokeColor=#6c8ebf;" parent="1" source="up2gKn9A0Hi2B86YJyC5-12" target="up2gKn9A0Hi2B86YJyC5-13" edge="1">
          <mxGeometry relative="1" as="geometry">
            <mxPoint x="720" y="80" as="targetPoint" />
          </mxGeometry>
        </mxCell>
        <mxCell id="up2gKn9A0Hi2B86YJyC5-12" value="" style="sketch=0;outlineConnect=0;fontColor=#232F3E;gradientColor=none;fillColor=#FF9900;strokeColor=none;dashed=0;verticalLabelPosition=bottom;verticalAlign=top;align=center;html=1;fontSize=12;fontStyle=0;aspect=fixed;pointerEvents=1;shape=mxgraph.aws4.instance2;" parent="1" vertex="1">
          <mxGeometry x="480" y="213.5" width="90.5" height="90.5" as="geometry" />
        </mxCell>
        <mxCell id="up2gKn9A0Hi2B86YJyC5-13" value="" style="sketch=0;outlineConnect=0;fontColor=#232F3E;gradientColor=none;fillColor=#527FFF;strokeColor=none;dashed=0;verticalLabelPosition=bottom;verticalAlign=top;align=center;html=1;fontSize=12;fontStyle=0;aspect=fixed;pointerEvents=1;shape=mxgraph.aws4.rds_mysql_instance;" parent="1" vertex="1">
          <mxGeometry x="650" y="226.5" width="64" height="64" as="geometry" />
        </mxCell>
        <mxCell id="up2gKn9A0Hi2B86YJyC5-15" value="Amazon RDS&lt;br&gt;MySQL DB&lt;br&gt;(target)" style="text;html=1;strokeColor=none;fillColor=none;align=center;verticalAlign=middle;whiteSpace=wrap;rounded=0;" parent="1" vertex="1">
          <mxGeometry x="639.5" y="304" width="85" height="40" as="geometry" />
        </mxCell>
        <mxCell id="up2gKn9A0Hi2B86YJyC5-16" style="edgeStyle=orthogonalEdgeStyle;rounded=0;orthogonalLoop=1;jettySize=auto;html=1;entryX=0.5;entryY=1;entryDx=0;entryDy=0;fillColor=#ffe6cc;strokeColor=#d79b00;" parent="1" source="up2gKn9A0Hi2B86YJyC5-4" target="up2gKn9A0Hi2B86YJyC5-15" edge="1">
          <mxGeometry relative="1" as="geometry" />
        </mxCell>
        <mxCell id="up2gKn9A0Hi2B86YJyC5-17" value="Full Load&lt;br style=&quot;font-size: 10px;&quot;&gt;CDC" style="text;html=1;strokeColor=none;fillColor=none;align=center;verticalAlign=middle;whiteSpace=wrap;rounded=0;fontSize=10;" parent="1" vertex="1">
          <mxGeometry x="490" y="264.5" width="70" height="30" as="geometry" />
        </mxCell>
        <mxCell id="up2gKn9A0Hi2B86YJyC5-18" value="" style="sketch=0;points=[[0,0,0],[0.25,0,0],[0.5,0,0],[0.75,0,0],[1,0,0],[0,1,0],[0.25,1,0],[0.5,1,0],[0.75,1,0],[1,1,0],[0,0.25,0],[0,0.5,0],[0,0.75,0],[1,0.25,0],[1,0.5,0],[1,0.75,0]];outlineConnect=0;fontColor=#232F3E;gradientDirection=north;fillColor=none;strokeColor=#000000;dashed=0;verticalLabelPosition=bottom;verticalAlign=top;align=center;html=1;fontSize=12;fontStyle=0;aspect=fixed;shape=mxgraph.aws4.resourceIcon;resIcon=mxgraph.aws4.database_migration_service;" parent="1" vertex="1">
          <mxGeometry x="507" y="229" width="35.5" height="35.5" as="geometry" />
        </mxCell>
        <mxCell id="up2gKn9A0Hi2B86YJyC5-19" value="AWS DMS&lt;br&gt;Replication Instance" style="text;html=1;strokeColor=none;fillColor=none;align=center;verticalAlign=middle;whiteSpace=wrap;rounded=0;" parent="1" vertex="1">
          <mxGeometry x="460.25" y="320" width="130" height="30" as="geometry" />
        </mxCell>
        <mxCell id="up2gKn9A0Hi2B86YJyC5-20" style="edgeStyle=orthogonalEdgeStyle;rounded=0;orthogonalLoop=1;jettySize=auto;html=1;fontSize=10;fillColor=#dae8fc;strokeColor=#6c8ebf;" parent="1" source="up2gKn9A0Hi2B86YJyC5-2" target="up2gKn9A0Hi2B86YJyC5-12" edge="1">
          <mxGeometry relative="1" as="geometry" />
        </mxCell>
        <mxCell id="up2gKn9A0Hi2B86YJyC5-24" value="Data migration" style="text;html=1;strokeColor=none;fillColor=none;align=center;verticalAlign=middle;whiteSpace=wrap;rounded=0;fontSize=14;" parent="1" vertex="1">
          <mxGeometry x="220" y="226" width="130" height="30" as="geometry" />
        </mxCell>
        <mxCell id="up2gKn9A0Hi2B86YJyC5-25" value="Schema conversion" style="text;html=1;strokeColor=none;fillColor=none;align=center;verticalAlign=middle;whiteSpace=wrap;rounded=0;fontSize=14;" parent="1" vertex="1">
          <mxGeometry x="220" y="330.5" width="130" height="30" as="geometry" />
        </mxCell>
        <mxCell id="up2gKn9A0Hi2B86YJyC5-27" value="DMS - Continuous Replication" style="text;html=1;strokeColor=none;fillColor=none;align=left;verticalAlign=middle;whiteSpace=wrap;rounded=0;fontSize=20;" parent="1" vertex="1">
          <mxGeometry x="30" y="60" width="370" height="30" as="geometry" />
        </mxCell>
      </root>
    </mxGraphModel>
  </diagram>
</mxfile>
